Coordinates
version=1
nRows=16
nColumns=22
inDegrees=yes

Units are S.I. units (second, meters, Newtons, ...)
If the header above contains a line with 'inDegrees', this indicates whether rotational values are in degrees (yes) or radians (no).

endheader
time	pelvis_tilt	pelvis_list	pelvis_rotation	pelvis_tx	pelvis_ty	pelvis_tz	hip_flexion_r	hip_adduction_r	hip_rotation_r	knee_angle_r	ankle_angle_r	subtalar_angle_r	hip_flexion_l	hip_adduction_l	hip_rotation_l	knee_angle_l	ankle_angle_l	subtalar_angle_l	lumbar_extension	lumbar_bending	lumbar_rotation
      5.97000000	     -1.49931646	      0.41755531	    290.25854088	     -0.79975043	      0.97724570	      0.32128047	     27.21131998	     -2.27322427	      9.05952454	     -6.58195639	      4.80474383	     21.26995860	    -15.24235299	      4.01711823	     15.96062419	    -11.68546648	     14.71258790	     -8.96336475	     -3.02438236	     -4.02118258	     -7.92159408
      5.98000000	     -1.48888219	      0.50960683	    291.08960904	     -0.79729487	      0.97694130	      0.33191117	     27.06453232	     -2.17574382	      9.77076572	     -6.88959207	      4.99237428	     20.98724773	    -15.66887663	      3.68282514	     16.45598363	    -11.85797380	     14.13835256	     -8.24978146	     -2.71524118	     -4.04164118	     -8.02010911
      5.99000000	     -1.46600799	      0.67509240	    291.93144403	     -0.79458201	      0.97663652	      0.34244128	     26.97281566	     -2.13492234	     10.58658830	     -7.29566736	      5.07661443	     20.78065469	    -15.96239833	      3.40874931	     16.92618568	    -12.12984756	     13.48767574	     -7.56092288	     -2.34224402	     -4.07359452	     -8.12612854
      6.00000000	     -1.45524764	      0.90964088	    292.76992998	     -0.79167590	      0.97633689	      0.35291979	     26.94247413	     -2.11804284	     11.46990190	     -7.78787624	      4.97513266	     20.60259825	    -16.12744827	      3.17020571	     17.34733893	    -12.48531622	     12.76936365	     -6.84201823	     -1.89484661	     -4.10092242	     -8.22535400
      6.01000000	     -1.46643938	      1.18888561	    293.59974834	     -0.78863269	      0.97608856	      0.36340406	     26.95995805	     -2.10263586	     12.36370394	     -8.36244274	      4.62643078	     20.41433281	    -16.18945990	      2.94736398	     17.70615660	    -12.91562169	     11.97066874	     -6.11588442	     -1.39134033	     -4.11467286	     -8.31044778
      6.02000000	     -1.48080696	      1.49797524	    294.40703478	     -0.78553616	      0.97594680	      0.37395415	     27.00806957	     -2.09413667	     13.25429155	     -9.00961414	      4.03971117	     20.19038003	    -16.17887378	      2.75367715	     18.02599766	    -13.40690291	     11.07125376	     -5.45775101	     -0.85404205	     -4.14247810	     -8.36209656
      6.03000000	     -1.55179771	      1.80123517	    295.17582069	     -0.78246602	      0.97596749	      0.38467495	     27.09606522	     -2.02046663	     14.00967507	     -9.75856004	      3.20329236	     19.89018790	    -16.11101535	      2.52020281	     18.23757055	    -13.95045449	     10.06965363	     -4.77130419	     -0.28536873	     -4.11969778	     -8.37187068
      6.04000000	     -1.66730819	      2.07510463	    295.89140646	     -0.77946723	      0.97620527	      0.39557388	     27.22172149	     -1.88204460	     14.54448231	    -10.63832486	      2.21953445	     19.54795560	    -16.01013726	      2.25343977	     18.34504276	    -14.54606422	      8.95526736	     -4.09566749	      0.28297664	     -4.05338136	     -8.32466233
      6.05000000	     -1.82640057	      2.31129353	    296.54848537	     -0.77653210	      0.97668787	      0.40662525	     27.37853056	     -1.68737066	     14.81574079	    -11.63746969	      1.21079705	     19.22093859	    -15.87723097	      1.95666430	     18.35685387	    -15.20068136	      7.72177039	     -3.43882904	      0.84105453	     -3.93559919	     -8.22449494
      6.06000000	     -2.01730158	      2.50384776	    297.14100180	     -0.77364715	      0.97743179	      0.41777048	     27.55419260	     -1.45605699	     14.79688275	    -12.73569457	      0.28460430	     18.97337476	    -15.71200815	      1.64444676	     18.26234992	    -15.92587174	      6.36786352	     -2.81735412	      1.37262597	     -3.76949088	     -8.07741435
      6.07000000	     -2.22450354	      2.64507471	    297.67132663	     -0.77078941	      0.97844588	      0.42893157	     27.71547905	     -1.21026448	     14.51664936	    -13.88628835	     -0.44705811	     18.76383477	    -15.51089158	      1.33027640	     18.04171441	    -16.74537271	      4.90557410	     -2.16014322	      1.85451080	     -3.55912563	     -7.89900336
      6.08000000	     -2.43735117	      2.72672104	    298.14001510	     -0.76796834	      0.97974495	      0.44004944	     27.81294910	     -0.95880129	     14.05873510	    -15.01066356	     -0.95919787	     18.61148940	    -15.28073599	      1.01885189	     17.70232830	    -17.66428356	      3.36326022	     -1.48356060	      2.26908225	     -3.31134558	     -7.69208303
      6.09000000	     -2.66436777	      2.75341588	    298.55307375	     -0.76519506	      0.98130226	      0.45106466	     27.82392953	     -0.69244603	     13.49243955	    -16.04123753	     -1.28067790	     18.49184674	    -15.00578366	      0.70113282	     17.24455543	    -18.69420940	      1.79836112	     -0.81364358	      2.62193691	     -3.01967738	     -7.45413254
      6.10000000	     -2.88905645	      2.72018654	    298.92495297	     -0.76249522	      0.98310013	      0.46191945	     27.71323103	     -0.40954605	     12.92677997	    -16.94392930	     -1.37697914	     18.31136574	    -14.67535633	      0.37939899	     16.63230278	    -19.87000082	      0.25224342	     -0.10143918	      2.89204812	     -2.69700872	     -7.23092635
      6.11000000	     -3.10396084	      2.64611161	    299.27475839	     -0.75987828	      0.98508477	      0.47254200	     27.48060507	     -0.12227106	     12.36576771	    -17.68119939	     -1.31801572	     18.00305058	    -14.24436865	      0.06074606	     15.84398132	    -21.24666470	     -1.18029708	      0.65011604	      3.08873677	     -2.36909929	     -6.99241681
      6.12000000	     -3.29816201	      2.55151535	    299.63340987	     -0.75734472	      0.98720369	      0.48290754	     27.13610065	      0.15532342	     11.84851070	    -18.25315980	     -1.13681410	     17.47591078	    -13.69413047	     -0.25325097	     14.91337898	    -22.82952326	     -2.49395715	      1.43659675	      3.22504692	     -2.06398626	     -6.78880605
